<?xml version="1.0" encoding="UTF-8"?>
<svg id="Layer_1" data-name="Layer 1" xmlns="http://www.w3.org/2000/svg" xmlns:xlink="http://www.w3.org/1999/xlink" viewBox="0 0 193.73 74.99">
  <defs>
    <style>
      .cls-1 {
        clip-path: url(#clippath);
      }

      .cls-2 {
        fill: none;
      }

      .cls-2, .cls-3, .cls-4 {
        stroke-width: 0px;
      }

      .cls-3 {
        fill: #f60;
      }

      .cls-4 {
        fill: #fff;
      }
    </style>
    <clipPath id="clippath">
      <rect class="cls-2" y="0" width="193.73" height="74.99"/>
    </clipPath>
  </defs>
  <g class="cls-1">
    <path class="cls-3" d="m172.48,52.27c0-3.41,2.72-5.72,5.8-5.72s5.8,2.3,5.8,5.72-2.71,5.72-5.8,5.72-5.8-2.3-5.8-5.72m5.83-.65c.99,0,1.27-.52,1.27-.98,0-.55-.28-.98-1.27-.98h-1.26v1.97h1.26Zm-1.26.89v3.14h-1.02v-6.92h2.53c1.48,0,2.16.65,2.16,1.91,0,.77-.53,1.39-1.2,1.47v.03c.58.09.8.61.93,1.57.09.61.22,1.69.43,1.94h-1.2c-.28-.65-.25-1.57-.47-2.34-.18-.58-.49-.8-1.17-.8h-.99Zm5.92-.24c0-2.77-1.97-4.79-4.69-4.79s-4.69,2.03-4.69,4.79,1.98,4.79,4.69,4.79,4.69-2.03,4.69-4.79"/>
    <polygon class="cls-3" points="152.38 57.98 145.69 50.51 139.06 57.98 125.12 57.98 138.75 42.73 125.12 27.47 139.5 27.47 146.25 34.88 152.75 27.47 166.63 27.47 153.06 42.66 166.82 57.98 152.38 57.98"/>
    <polygon class="cls-3" points="98.33 57.98 98.33 9.92 125.12 9.92 125.12 20.63 109.68 20.63 109.68 27.47 125.12 27.47 125.12 37.78 109.68 37.78 109.68 47.24 125.12 47.24 125.12 57.98 98.33 57.98"/>
    <path class="cls-4" d="m80.18,50.66c-4.16,0-6.75-3.87-6.75-7.9,0-4.31,2.25-8.46,6.75-8.46s6.53,4.15,6.53,8.46c0,4.09-1.97,7.9-6.53,7.9m-40.15-12.74c.71-3.05,3.09-5.05,6.06-5.05,3.27,0,5.52,1.93,6.12,5.05h-12.17Zm47-28v19.67h-.12c-2.5-2.86-5.63-3.86-9.25-3.86-7.43,0-13.02,5.03-14.99,11.68-2.24-7.33-8.02-11.82-16.58-11.82-6.96,0-12.45,3.11-15.32,8.18v-6.3h-14.38v-6.84h15.69v-10.71H3.58v48.06h12.82v-20.2h12.78c-.38,1.48-.58,3.07-.58,4.75,0,10.03,7.69,17.06,17.5,17.06,8.25,0,13.69-3.86,16.57-10.89h-10.98c-1.49,2.12-2.61,2.74-5.58,2.74-3.44,0-6.41-2.99-6.41-6.54h22.37c.97,7.96,7.2,14.83,15.74,14.83,3.69,0,7.06-1.81,9.13-4.86h.12v3.11h11.3V9.92h-11.3Z"/>
  </g>
</svg>